<?xml version="1.0" encoding="UTF-8"?>
<!DOCTYPE svg PUBLIC "-//W3C//DTD SVG 1.1//EN" "http://www.w3.org/Graphics/SVG/1.1/DTD/svg11.dtd">
<svg xmlns="http://www.w3.org/2000/svg" version="1.1" width="1920px" height="1890px" style="shape-rendering:geometricPrecision; text-rendering:geometricPrecision; image-rendering:optimizeQuality; fill-rule:evenodd; clip-rule:evenodd" xmlns:xlink="http://www.w3.org/1999/xlink">
<g><path style="opacity:1" fill="#fefffe" d="M 675.5,131.5 C 738.168,131.333 800.834,131.5 863.5,132C 868.957,132.259 873.457,134.426 877,138.5C 879.578,143.227 881.578,148.227 883,153.5C 885.206,159.192 889.373,162.359 895.5,163C 898.5,163.333 901.5,163.667 904.5,164C 949.833,164.667 995.167,164.667 1040.5,164C 1044.54,163.727 1048.04,162.227 1051,159.5C 1053.46,152.874 1055.79,146.208 1058,139.5C 1061.44,136.126 1065.61,134.293 1070.5,134C 1203.19,133.795 1335.85,134.795 1468.5,137C 1476.33,138.167 1480.83,142.667 1482,150.5C 1483.07,244.522 1482.4,338.522 1480,432.5C 1478.98,443.684 1472.81,449.017 1461.5,448.5C 1400.17,447.689 1338.84,447.189 1277.5,447C 1269.96,446.226 1262.63,444.559 1255.5,442C 1243.71,436.271 1232.04,430.271 1220.5,424C 1169.72,402.46 1119.39,403.46 1069.5,427C 1067.04,428.458 1064.87,430.291 1063,432.5C 1060.03,439.721 1057.36,447.055 1055,454.5C 1051.89,457.806 1048.05,459.639 1043.5,460C 988.17,459.858 932.837,459.525 877.5,459C 873.71,458.77 870.376,457.437 867.5,455C 864.888,450.276 862.388,445.443 860,440.5C 852.044,433.1 842.878,427.6 832.5,424C 809.993,416.139 786.826,413.306 763,415.5C 716.364,415.01 669.864,417.177 623.5,422C 583.948,426.188 551.448,443.355 526,473.5C 515.75,488.997 505.75,504.664 496,520.5C 483.237,536.598 469.07,551.431 453.5,565C 443.047,574.402 434.547,572.902 428,560.5C 422.412,540.541 420.412,520.208 422,499.5C 428.129,422.645 448.129,349.645 482,280.5C 500.782,244.371 524.949,212.205 554.5,184C 589.326,153.923 629.659,136.423 675.5,131.5 Z"/></g>
<g><path style="opacity:1" fill="#fe0000" d="M 670.5,147.5 C 733.174,147.198 795.841,147.698 858.5,149C 860.492,149.574 861.992,150.741 863,152.5C 864.334,159.848 865.668,167.181 867,174.5C 870.112,177.806 873.945,179.639 878.5,180C 927.167,180.333 975.833,180.667 1024.5,181C 1037.46,182.544 1050.46,182.877 1063.5,182C 1067.82,179.874 1069.98,176.374 1070,171.5C 1070.33,166.167 1070.67,160.833 1071,155.5C 1071.83,153.333 1073.33,151.833 1075.5,151C 1137.83,150.333 1200.17,150.333 1262.5,151C 1265.47,151.794 1268.47,152.461 1271.5,153C 1335.17,153.333 1398.83,153.667 1462.5,154C 1464.72,154.652 1465.89,156.152 1466,158.5C 1466.1,248.5 1465.76,338.5 1465,428.5C 1463.68,430.487 1461.85,431.654 1459.5,432C 1395.5,432.674 1331.5,432.341 1267.5,431C 1259.78,428.643 1252.78,424.976 1246.5,420C 1234.56,413.529 1222.22,407.862 1209.5,403C 1201.7,401.067 1194.04,398.734 1186.5,396C 1173.86,394.597 1161.19,393.43 1148.5,392.5C 1137.52,393.58 1126.52,394.414 1115.5,395C 1102.89,398.869 1090.23,402.536 1077.5,406C 1068.76,409.538 1060.42,413.871 1052.5,419C 1046.44,424.613 1042.61,431.446 1041,439.5C 1038.81,442.181 1035.97,443.681 1032.5,444C 984.5,444.667 936.5,444.667 888.5,444C 885.126,443.479 882.126,442.146 879.5,440C 877.208,436.584 875.041,433.084 873,429.5C 868.564,426.697 864.397,423.531 860.5,420C 827.572,402.368 792.405,395.534 755,399.5C 740.5,399.667 726,399.833 711.5,400C 685.171,401.241 658.838,402.574 632.5,404C 580.916,409.031 539.416,431.865 508,472.5C 494.427,499.461 476.593,523.295 454.5,544C 450.782,546.298 446.782,546.965 442.5,546C 440.667,545.5 439.5,544.333 439,542.5C 438.333,522.5 438.333,502.5 439,482.5C 442.741,467.718 445.075,452.718 446,437.5C 449.772,425.411 452.439,413.078 454,400.5C 458.392,382.992 463.392,365.658 469,348.5C 484.587,303.314 506.92,261.981 536,224.5C 561.819,192.678 593.986,169.845 632.5,156C 645.365,153.36 658.032,150.527 670.5,147.5 Z"/></g>
<g><path style="opacity:1" fill="#fefefe" d="M 881.5,498.5 C 937.508,498.188 993.508,498.688 1049.5,500C 1057.67,500.833 1062.17,505.333 1063,513.5C 1079.5,936.88 1096.34,1360.21 1113.5,1783.5C 1112.54,1785.92 1111.21,1788.08 1109.5,1790C 1000.17,1790.67 890.833,1790.67 781.5,1790C 778.063,1788.9 775.563,1786.73 774,1783.5C 803.812,1362.63 834.312,941.8 865.5,521C 864.318,508.864 869.651,501.364 881.5,498.5 Z"/></g>
<g><path style="opacity:1" fill="#fe0000" d="M 898.5,519.5 C 942.168,519.333 985.835,519.5 1029.5,520C 1037.08,520.246 1041.58,524.079 1043,531.5C 1047.61,603.75 1050.61,676.084 1052,748.5C 1053.9,768.456 1055.23,788.456 1056,808.5C 1056.9,850.502 1057.9,892.502 1059,934.5C 1062.71,982.079 1064.71,1029.75 1065,1077.5C 1067,1111.5 1069,1145.5 1071,1179.5C 1071.52,1238.26 1073.85,1296.93 1078,1355.5C 1079.12,1417.58 1081.79,1479.58 1086,1541.5C 1086.94,1584.5 1087.94,1627.5 1089,1670.5C 1089.58,1675.51 1090.25,1680.51 1091,1685.5C 1091.19,1706.03 1092.03,1726.53 1093.5,1747C 1093.52,1752.56 1093.02,1758.06 1092,1763.5C 1090.29,1768.54 1086.79,1771.37 1081.5,1772C 990.503,1771.83 899.503,1771.5 808.5,1771C 800.333,1770.17 795.833,1765.67 795,1757.5C 794.754,1743.16 795.087,1728.83 796,1714.5C 803.366,1628.54 810.366,1542.54 817,1456.5C 817.888,1424.73 820.221,1393.06 824,1361.5C 824.419,1335.37 826.419,1309.37 830,1283.5C 831.181,1262.84 832.181,1242.18 833,1221.5C 837.188,1186.62 839.855,1151.62 841,1116.5C 846.467,1036.42 852.801,956.424 860,876.5C 861.145,856.508 862.145,836.508 863,816.5C 865.412,795.538 867.412,774.538 869,753.5C 872.587,707.211 875.587,660.878 878,614.5C 881.438,587.264 883.771,559.931 885,532.5C 886.139,524.526 890.639,520.192 898.5,519.5 Z"/></g>
<g><path style="opacity:1" fill="#fefefe" d="M 410.5,642.5 C 460.237,639.343 509.237,643.843 557.5,656C 640.78,680.291 685.28,735.791 691,822.5C 690.933,890.165 690.6,957.832 690,1025.5C 689.72,1032.58 686.22,1037.08 679.5,1039C 660.85,1040.85 642.183,1040.85 623.5,1039C 579.5,1038.67 535.5,1038.33 491.5,1038C 482.25,1037.02 477.416,1031.85 477,1022.5C 476.667,952.833 476.333,883.167 476,813.5C 474.833,807 471,803.167 464.5,802C 455.403,799.842 446.403,800.175 437.5,803C 433.942,804.892 431.442,807.725 430,811.5C 428.999,825.853 427.665,840.187 426,854.5C 424.546,1075.44 423.212,1296.44 422,1517.5C 419.718,1529.59 420.051,1541.59 423,1553.5C 424.902,1558.4 428.402,1561.57 433.5,1563C 443.765,1565.49 453.765,1564.83 463.5,1561C 466.135,1559.04 467.969,1556.54 469,1553.5C 469.896,1533.15 471.229,1512.82 473,1492.5C 473.667,1452.5 473.667,1412.5 473,1372.5C 472.754,1366.49 469.92,1362.32 464.5,1360C 454.891,1358.64 445.224,1358.14 435.5,1358.5C 435.5,1299.83 435.5,1241.17 435.5,1182.5C 514.499,1183.08 593.499,1183.58 672.5,1184C 679.463,1184.06 684.296,1187.22 687,1193.5C 688.141,1216.79 688.641,1240.13 688.5,1263.5C 688.333,1285.17 688.167,1306.83 688,1328.5C 687.333,1333.83 686.667,1339.17 686,1344.5C 685.667,1414.83 685.333,1485.17 685,1555.5C 683.715,1604.81 683.048,1654.15 683,1703.5C 681.903,1713.26 676.403,1718.09 666.5,1718C 636.472,1718.93 606.472,1718.6 576.5,1717C 571.761,1715.88 567.928,1713.38 565,1709.5C 559.587,1699.01 553.921,1688.67 548,1678.5C 545.217,1675.86 542.05,1673.86 538.5,1672.5C 533.725,1673.68 529.058,1675.18 524.5,1677C 453.239,1730.44 376.239,1740.11 293.5,1706C 226.328,1677.55 190.828,1626.72 187,1553.5C 187.135,1461.84 187.469,1370.17 188,1278.5C 188.501,1271.48 189.168,1264.48 190,1257.5C 190.308,1120.15 191.308,982.816 193,845.5C 195.473,748.077 242.973,684.911 335.5,656C 344.783,653.461 354.116,651.128 363.5,649C 379.366,647.227 395.033,645.06 410.5,642.5 Z"/></g>
<g><path style="opacity:1" fill="#fe0000" d="M 414.5,656.5 C 451.335,655.166 488.002,657 524.5,662C 546.588,665.854 567.921,672.188 588.5,681C 640.604,705.642 669.77,746.808 676,804.5C 677.069,820.643 677.569,836.81 677.5,853C 676.872,906.165 676.372,959.332 676,1012.5C 675.895,1016.36 675.062,1020.03 673.5,1023.5C 672.088,1024.81 670.421,1025.64 668.5,1026C 611.836,1025.6 555.169,1024.93 498.5,1024C 493.758,1020.35 491.258,1015.52 491,1009.5C 490.667,943.833 490.333,878.167 490,812.5C 485.579,796.766 475.079,788.266 458.5,787C 446.141,785.617 434.808,788.283 424.5,795C 420.007,798.834 417.174,803.667 416,809.5C 415.101,825.2 413.768,840.866 412,856.5C 410.021,1078.48 408.687,1300.48 408,1522.5C 401.742,1566.24 420.242,1584.08 463.5,1576C 476.21,1571.76 483.044,1562.93 484,1549.5C 483.938,1529.77 484.938,1510.1 487,1490.5C 487.667,1446.83 487.667,1403.17 487,1359.5C 486.18,1350.68 481.347,1345.85 472.5,1345C 465.421,1344.89 458.421,1344.22 451.5,1343C 447.698,1340.91 445.198,1337.75 444,1333.5C 443.333,1292.17 443.333,1250.83 444,1209.5C 445.582,1202.25 450.082,1198.09 457.5,1197C 525.164,1197.1 592.831,1197.44 660.5,1198C 668.333,1199.17 672.833,1203.67 674,1211.5C 674.667,1251.17 674.667,1290.83 674,1330.5C 673.26,1336.16 672.594,1341.82 672,1347.5C 671.603,1461.83 670.936,1576.17 670,1690.5C 669.754,1696.51 666.92,1700.68 661.5,1703C 648.211,1704.12 634.878,1704.62 621.5,1704.5C 608.122,1704.62 594.789,1704.12 581.5,1703C 576.792,1701.62 573.292,1698.79 571,1694.5C 564.349,1681.2 557.682,1667.86 551,1654.5C 546.765,1647.59 541.598,1646.75 535.5,1652C 465.952,1714.5 387.285,1728.84 299.5,1695C 280.338,1686.6 262.671,1675.93 246.5,1663C 226.524,1644.23 213.357,1621.4 207,1594.5C 201.447,1570.3 199.281,1545.8 200.5,1521C 200.418,1506.14 200.918,1491.31 202,1476.5C 203.619,1263.5 205.286,1050.5 207,837.5C 208.015,788.745 224.848,746.578 257.5,711C 288.553,685.149 324.219,668.982 364.5,662.5C 381.361,660.911 398.028,658.911 414.5,656.5 Z"/></g>
<g><path style="opacity:1" fill="#fefefe" d="M 1196.5,657.5 C 1285.15,659.057 1373.81,659.89 1462.5,660C 1518.89,660.511 1571.22,675.178 1619.5,704C 1667.67,735.598 1693.17,780.431 1696,838.5C 1696.54,891.504 1696.21,944.504 1695,997.5C 1691.52,1030.76 1679.52,1060.43 1659,1086.5C 1651.17,1094.33 1643.33,1102.17 1635.5,1110C 1623.18,1118.83 1610.51,1127.16 1597.5,1135C 1594.95,1137.85 1592.11,1140.35 1589,1142.5C 1588.31,1144.57 1588.48,1146.57 1589.5,1148.5C 1602.66,1157.58 1616,1166.41 1629.5,1175C 1658.63,1197.84 1677.79,1227.34 1687,1263.5C 1689,1275.5 1691,1287.5 1693,1299.5C 1693.17,1307 1693.33,1314.5 1693.5,1322C 1691.51,1350.46 1690.01,1378.96 1689,1407.5C 1687.83,1461.87 1688.5,1516.2 1691,1570.5C 1693.66,1591.1 1695.66,1611.77 1697,1632.5C 1700.09,1655.39 1705.42,1677.73 1713,1699.5C 1717.5,1708.33 1723.17,1716.33 1730,1723.5C 1730.71,1725.37 1730.21,1726.87 1728.5,1728C 1725.19,1728.94 1721.85,1729.77 1718.5,1730.5C 1712.55,1729.49 1706.55,1728.65 1700.5,1728C 1637.17,1727.67 1573.83,1727.33 1510.5,1727C 1501.3,1726.13 1494.46,1721.63 1490,1713.5C 1478.97,1690.71 1471.97,1666.71 1469,1641.5C 1466.33,1612.84 1463.67,1584.17 1461,1555.5C 1460.63,1532 1460.13,1508.5 1459.5,1485C 1461.26,1432.16 1463.09,1379.32 1465,1326.5C 1465.67,1304.17 1465.67,1281.83 1465,1259.5C 1460.43,1233.62 1444.93,1222.12 1418.5,1225C 1416.38,1226.73 1414.88,1228.9 1414,1231.5C 1412.8,1243.47 1411.8,1255.47 1411,1267.5C 1410.46,1411.18 1409.46,1554.85 1408,1698.5C 1408.04,1705.14 1406.7,1711.47 1404,1717.5C 1400.74,1721.38 1396.57,1723.55 1391.5,1724C 1331.83,1724.67 1272.17,1724.67 1212.5,1724C 1202.79,1723.3 1193.13,1722.3 1183.5,1721C 1180.06,1719.9 1177.56,1717.73 1176,1714.5C 1174.12,1708.82 1173.29,1702.99 1173.5,1697C 1173.76,1690.15 1174.26,1683.32 1175,1676.5C 1175.67,1528.17 1176.34,1379.83 1177,1231.5C 1178.31,1085.16 1179.64,938.83 1181,792.5C 1181.56,784.491 1182.23,776.491 1183,768.5C 1183.33,735.833 1183.67,703.167 1184,670.5C 1185.01,662.99 1189.18,658.656 1196.5,657.5 Z M 1423.5,811.5 C 1444.69,810.493 1458.86,819.826 1466,839.5C 1467.93,851.417 1468.76,863.417 1468.5,875.5C 1467.13,932.505 1465.96,989.505 1465,1046.5C 1457.15,1069.18 1441.31,1078.68 1417.5,1075C 1414.77,1072.04 1413.27,1068.54 1413,1064.5C 1413.23,984.172 1413.57,903.838 1414,823.5C 1414.46,817.221 1417.63,813.221 1423.5,811.5 Z"/></g>
<g><path style="opacity:1" fill="#fe0000" d="M 1697.5,1704.5 C 1697.66,1705.87 1697.49,1707.21 1697,1708.5C 1695.12,1709.05 1693.62,1710.05 1692.5,1711.5C 1690.2,1712.06 1687.87,1712.56 1685.5,1713C 1628.5,1713.67 1571.5,1713.67 1514.5,1713C 1507.8,1712.24 1502.63,1709.07 1499,1703.5C 1490.3,1682.66 1484.63,1661 1482,1638.5C 1476.71,1588.64 1473.88,1538.64 1473.5,1488.5C 1475.2,1432.83 1477.03,1377.16 1479,1321.5C 1479.92,1298.8 1479.59,1276.13 1478,1253.5C 1472.33,1232.5 1459.17,1218.67 1438.5,1212C 1430.19,1209.3 1421.69,1207.46 1413,1206.5C 1404.35,1207.15 1399.69,1211.81 1399,1220.5C 1398.82,1237.86 1398.15,1255.19 1397,1272.5C 1396.67,1342.83 1396.33,1413.17 1396,1483.5C 1395.33,1488.83 1394.67,1494.17 1394,1499.5C 1393.98,1567.2 1393.32,1634.87 1392,1702.5C 1389.89,1706.94 1386.39,1709.44 1381.5,1710C 1323.83,1710.67 1266.17,1710.67 1208.5,1710C 1193.4,1710.07 1186.4,1702.57 1187.5,1687.5C 1188.03,1681.17 1188.53,1674.84 1189,1668.5C 1189.66,1447.81 1190.99,1227.15 1193,1006.5C 1193.67,1000.5 1194.33,994.5 1195,988.5C 1195.27,887.497 1195.94,786.497 1197,685.5C 1197.41,677.426 1201.58,672.926 1209.5,672C 1231.53,671.12 1253.53,671.453 1275.5,673C 1338.17,673.333 1400.83,673.667 1463.5,674C 1518.23,673.68 1568.9,687.68 1615.5,716C 1656,742.8 1678.17,780.633 1682,829.5C 1682.65,886.505 1682.32,943.505 1681,1000.5C 1676.91,1041.52 1659.08,1075.02 1627.5,1101C 1602.87,1118.81 1575.87,1132.15 1546.5,1141C 1543.64,1141.93 1541.31,1143.6 1539.5,1146C 1540.88,1147.71 1542.54,1149.05 1544.5,1150C 1574.97,1157.41 1602.64,1170.41 1627.5,1189C 1650.39,1208.26 1665.55,1232.43 1673,1261.5C 1677.61,1281.75 1679.77,1302.25 1679.5,1323C 1677.55,1349.12 1676.38,1375.28 1676,1401.5C 1675.14,1456.18 1675.47,1510.84 1677,1565.5C 1679.8,1589.12 1682.13,1612.79 1684,1636.5C 1687.14,1654.71 1691.14,1672.71 1696,1690.5C 1696.17,1695.35 1696.67,1700.02 1697.5,1704.5 Z M 1423.5,811.5 C 1417.63,813.221 1414.46,817.221 1414,823.5C 1413.57,903.838 1413.23,984.172 1413,1064.5C 1413.27,1068.54 1414.77,1072.04 1417.5,1075C 1441.31,1078.68 1457.15,1069.18 1465,1046.5C 1465.96,989.505 1467.13,932.505 1468.5,875.5C 1468.76,863.417 1467.93,851.417 1466,839.5C 1458.86,819.826 1444.69,810.493 1423.5,811.5 Z"/></g>
<g><path style="opacity:1" fill="#fefeff" d="M 1412.5,796.5 C 1441.5,794.743 1463,806.409 1477,831.5C 1481.17,845.354 1483,859.521 1482.5,874C 1480.8,928.141 1479.97,982.308 1480,1036.5C 1476.23,1064.94 1460.4,1082.77 1432.5,1090C 1424.2,1092.4 1415.87,1092.73 1407.5,1091C 1401.89,1088.36 1399.06,1083.86 1399,1077.5C 1399.24,991.505 1399.57,905.505 1400,819.5C 1400.11,813.054 1401.78,807.054 1405,801.5C 1407.43,799.548 1409.93,797.881 1412.5,796.5 Z M 1423.5,811.5 C 1417.63,813.221 1414.46,817.221 1414,823.5C 1413.57,903.838 1413.23,984.172 1413,1064.5C 1413.27,1068.54 1414.77,1072.04 1417.5,1075C 1441.31,1078.68 1457.15,1069.18 1465,1046.5C 1465.96,989.505 1467.13,932.505 1468.5,875.5C 1468.76,863.417 1467.93,851.417 1466,839.5C 1458.86,819.826 1444.69,810.493 1423.5,811.5 Z"/></g>
<g><path style="opacity:1" fill="#fff928" d="M 1697.5,1704.5 C 1698.85,1705.53 1699.35,1706.86 1699,1708.5C 1697.16,1710.17 1694.99,1711.17 1692.5,1711.5C 1693.62,1710.05 1695.12,1709.05 1697,1708.5C 1697.49,1707.21 1697.66,1705.87 1697.5,1704.5 Z"/></g>
</svg>
